<svg width="28" height="28" viewBox="0 0 28 28" fill="none" xmlns="http://www.w3.org/2000/svg">
<path d="M9.05334 18.9466C7.78167 17.6866 7 15.9366 7 14C7 12.0633 7.78167 10.3133 9.05334 9.05332L10.71 10.71C9.85834 11.55 9.33334 12.7166 9.33334 14C9.33334 15.2833 9.85834 16.45 10.6983 17.3016L9.05334 18.9466ZM18.9467 18.9466C20.2183 17.6866 21 15.9366 21 14C21 12.0633 20.2183 10.3133 18.9467 9.05332L17.29 10.71C18.1417 11.55 18.6667 12.7166 18.6667 14C18.6667 15.2833 18.1417 16.45 17.3017 17.3016L18.9467 18.9466ZM14 11.6666C12.7167 11.6666 11.6667 12.7166 11.6667 14C11.6667 15.2833 12.7167 16.3333 14 16.3333C15.2833 16.3333 16.3333 15.2833 16.3333 14C16.3333 12.7166 15.2833 11.6666 14 11.6666ZM23.3333 14C23.3333 16.5783 22.2833 18.9116 20.5917 20.5916L22.2483 22.2483C24.36 20.1366 25.6667 17.22 25.6667 14C25.6667 10.78 24.36 7.86331 22.2483 5.75165L20.5917 7.40831C22.2833 9.08832 23.3333 11.4216 23.3333 14ZM7.40834 7.40831L5.75167 5.75165C3.64 7.86331 2.33334 10.78 2.33334 14C2.33334 17.22 3.64 20.1366 5.75167 22.2483L7.40834 20.5916C5.71667 18.9116 4.66667 16.5783 4.66667 14C4.66667 11.4216 5.71667 9.08832 7.40834 7.40831Z" fill="#0069FF"/>
</svg>
