<svg width="28" height="28" viewBox="0 0 28 28" fill="none" xmlns="http://www.w3.org/2000/svg">
<path d="M4.66668 21V20.2417C4.66668 19.845 4.85334 19.4717 5.14501 19.2967C7.11668 18.1184 9.36834 17.5 11.6667 17.5C11.7017 17.5 11.725 17.5 11.76 17.5117C11.8767 16.695 12.11 15.9134 12.4483 15.2017C12.1917 15.1784 11.935 15.1667 11.6667 15.1667C8.84334 15.1667 6.20668 15.9484 3.95501 17.29C2.92834 17.8967 2.33334 19.04 2.33334 20.2417V23.3334H13.1367C12.6467 22.6334 12.2617 21.84 12.005 21H4.66668Z" fill="#0069FF"/>
<path d="M11.6667 14C14.245 14 16.3333 11.9117 16.3333 9.33335C16.3333 6.75502 14.245 4.66669 11.6667 4.66669C9.08833 4.66669 7 6.75502 7 9.33335C7 11.9117 9.08833 14 11.6667 14ZM11.6667 7.00002C12.95 7.00002 14 8.05002 14 9.33335C14 10.6167 12.95 11.6667 11.6667 11.6667C10.3833 11.6667 9.33333 10.6167 9.33333 9.33335C9.33333 8.05002 10.3833 7.00002 11.6667 7.00002Z" fill="#0069FF"/>
<path d="M24.2083 18.6667C24.2083 18.41 24.1733 18.1767 24.1383 17.9317L25.4683 16.7534L24.3017 14.735L22.61 15.3067C22.2367 14.9917 21.8167 14.7467 21.35 14.5717L21 12.8334H18.6667L18.3167 14.5717C17.85 14.7467 17.43 14.9917 17.0567 15.3067L15.365 14.735L14.1983 16.7534L15.5283 17.9317C15.4933 18.1767 15.4583 18.41 15.4583 18.6667C15.4583 18.9234 15.4933 19.1567 15.5283 19.4017L14.1983 20.58L15.365 22.5984L17.0567 22.0267C17.43 22.3417 17.85 22.5867 18.3167 22.7617L18.6667 24.5H21L21.35 22.7617C21.8167 22.5867 22.2367 22.3417 22.61 22.0267L24.3017 22.5984L25.4683 20.58L24.1383 19.4017C24.1733 19.1567 24.2083 18.9234 24.2083 18.6667ZM19.8333 21C18.55 21 17.5 19.95 17.5 18.6667C17.5 17.3834 18.55 16.3334 19.8333 16.3334C21.1167 16.3334 22.1667 17.3834 22.1667 18.6667C22.1667 19.95 21.1167 21 19.8333 21Z" fill="#0069FF"/>
</svg>
